# xmcd
#
# Track frame offsets:
#	150
#	21990
#	44625
#	58180
#	77327
#	99545
#	114942
#	136652
#	155020
#	177912
#	199837
#	219612
#
# Disc length: 3186 seconds
#
# Revision: 5
# Processed by: cddbd v1.5.2PL0 Copyright (c) Steve Scherf et al.
# Submitted via: EasyCDDAExtractor 15.3.0.1
#
DISCID=a30c700c
DTITLE=Jerry Rivera - De Otra Manera
DYEAR=1998
DGENRE=Latin
TTITLE0=Si Quieres Amar
TTITLE1=Tu Recuerdo
TTITLE2=Entrega
TTITLE3=Si Tu Me Faltas
TTITLE4=De Otra Manera
TTITLE5=Ese (Version Balada)
TTITLE6=Quiero Investigarte
TTITLE7=Hiereme Sin Compasion
TTITLE8=Vive En Mi
TTITLE9=Voy A Conquistarte
TTITLE10=De Que Vale Ser Un Rey
TTITLE11=Ese
EXTD=YEAR: 1998
EXTT0=
EXTT1=
EXTT2=
EXTT3=
EXTT4=
EXTT5=
EXTT6=
EXTT7=
EXTT8=
EXTT9=
EXTT10=
EXTT11=
PLAYORDER=
